<?xml version="1.0" encoding="iso-8859-1"?>
<!-- Generator: Adobe Illustrator 19.0.0, SVG Export Plug-In . SVG Version: 6.00 Build 0)  -->
<svg version="1.1" id="Capa_1" xmlns="http://www.w3.org/2000/svg" xmlns:xlink="http://www.w3.org/1999/xlink" x="0px" y="0px"
	 viewBox="0 0 512.002 512.002" style="enable-background:new 0 0 512.002 512.002;" xml:space="preserve">
<path style="fill:#8BD4DC;" d="M397.321,121.242c-46.142,0-83.681,37.539-83.681,83.681c0,9.243,7.493,16.736,16.736,16.736
	c9.243,0,16.736-7.493,16.736-16.736c0-27.685,22.523-50.208,50.208-50.208c47.282,0,69.114,60.005,29.777,90.629
	c-43.987,34.178-65.404,90.005-55.894,145.693c1.394,8.158,8.472,13.921,16.478,13.921c10.402,0,18.26-9.349,16.517-19.556
	c-7.412-43.404,9.141-86.847,43.214-113.453c21.351-15.493,33.59-39.902,33.59-67.026
	C481.002,158.781,443.463,121.242,397.321,121.242z"/>
<path style="fill:#A9DAD9;" d="M359.054,277.018c-33.759-55.462-41.397-122.972-21.135-184.659l0,0
	c5.259-16.011-6.668-32.483-23.52-32.483h-78.102L176.002,504.5h45.553h36.188c69.673,0,127.494-55.313,128.918-124.971
	c0.028-1.377,0.042-2.757,0.041-4.14C386.669,339.465,376.559,305.776,359.054,277.018z"/>
<path style="fill:#C2E2DD;" d="M308.558,379.529c0.028-1.377,0.042-2.757,0.041-4.14c-0.032-35.923-10.142-69.613-27.646-98.371
	c-33.759-55.462-41.397-122.972-21.135-184.659l0,0c5.259-16.011-6.668-32.483-23.52-32.483l0,0
	c-45.996,0-90.391-16.891-124.754-47.465l0,0c-8.382-7.458-21.477-6.317-28.146,2.705c-4.54,6.142-6.273,14.352-3.615,22.445l0,0
	c20.263,61.686,12.625,183.994-21.134,239.456c-17.505,28.759-27.616,62.448-27.647,98.372c-0.001,1.383,0.012,2.763,0.041,4.139
	C32.467,449.187,90.288,504.5,159.961,504.5h19.68C249.313,504.5,307.134,449.187,308.558,379.529z"/>
<path style="fill:#B8BA38;" d="M327.314,294.421l-132.099,0.001v176.605h59.378c25.063,0,48.788-9.579,66.804-26.973
	c17.97-17.348,28.144-40.508,28.649-65.216c0.024-1.138,0.035-2.278,0.034-3.42C350.054,346.858,342.182,318.849,327.314,294.421z"
	/>
<path style="fill:#FEF076;" d="M61.326,375.414c-0.001,1.144,0.01,2.286,0.034,3.43c0.504,24.703,10.679,47.863,28.649,65.211
	c18.016,17.394,41.741,26.973,66.804,26.973h61.995c25.125-22.716,41.23-55.151,41.973-91.499c0.028-1.377,0.042-2.757,0.041-4.14
	c-0.025-28.906-6.587-56.36-18.265-80.967l-158.465,0C69.223,318.849,61.351,346.858,61.326,375.414z"/>
<path style="fill:#F3D035;" d="M268.035,413.658c25.495-25.495,27.213-65.762,5.154-93.247c-2.595-3.233-7.447-3.454-10.379-0.523
	l-88.546,88.546c-2.931,2.931-2.71,7.784,0.523,10.379C202.274,440.87,242.541,439.152,268.035,413.658z"/>
<path d="M451.774,186.077c-8.106-23.608-29.48-38.862-54.453-38.862c-31.82,0-57.708,25.888-57.708,57.709
	c0,4.129-2.783,7.783-6.77,8.886c-3.743,1.036-6.033,4.733-5.395,8.48c0.043,0.25,0.098,0.5,0.167,0.75
	c7.601,27.462,15.918,41.926,23.96,55.913c6.465,11.242,12.571,21.862,18.354,39.243c0.01,0.029,0.025,0.054,0.035,0.083
	c0.116,0.334,0.252,0.66,0.414,0.974c0.032,0.062,0.067,0.12,0.101,0.181c0.153,0.279,0.321,0.548,0.508,0.806
	c0.026,0.036,0.049,0.075,0.076,0.11c0.204,0.271,0.433,0.524,0.673,0.766c0.052,0.052,0.104,0.103,0.157,0.154
	c0.25,0.237,0.512,0.46,0.796,0.663c0.018,0.012,0.036,0.023,0.054,0.035c0.266,0.187,0.549,0.354,0.843,0.506
	c0.06,0.031,0.118,0.063,0.179,0.093c0.282,0.137,0.571,0.263,0.876,0.366c0.018,0.006,0.037,0.008,0.055,0.014
	c0.296,0.098,0.601,0.166,0.907,0.226c0.086,0.017,0.17,0.047,0.256,0.061c0.389,0.063,0.785,0.096,1.185,0.096h0.001h0.001
	c0.396,0,0.788-0.033,1.174-0.094c0.055-0.009,0.109-0.029,0.164-0.039c0.336-0.061,0.668-0.138,0.991-0.243
	c0.012-0.004,0.025-0.005,0.037-0.009c0.308-0.103,0.601-0.229,0.886-0.366c0.068-0.033,0.135-0.069,0.202-0.104
	c0.289-0.15,0.568-0.313,0.83-0.496c0.018-0.012,0.037-0.022,0.054-0.035c0.28-0.199,0.54-0.419,0.787-0.651
	c0.058-0.054,0.114-0.109,0.17-0.165c0.237-0.237,0.461-0.484,0.663-0.749c0.033-0.043,0.062-0.091,0.094-0.135
	c0.18-0.247,0.343-0.505,0.491-0.771c0.037-0.066,0.075-0.129,0.11-0.196c0.159-0.308,0.295-0.626,0.411-0.954
	c0.011-0.032,0.029-0.06,0.04-0.092c9.02-26.647,25.462-49.804,47.556-66.971C452.367,235.177,460.056,210.199,451.774,186.077z
	 M422.497,239.422c-19.333,15.021-34.732,34.204-45.262,56.152c-4.181-9.35-8.464-16.809-12.655-24.099
	c-7.279-12.659-14.188-24.683-20.762-46.415c6.59-4.412,10.795-11.911,10.795-20.135c0-23.55,19.159-42.709,42.708-42.709
	c18.468,0,34.272,11.278,40.267,28.733C442.397,204.957,440.958,225.05,422.497,239.422z"/>
<path d="M397.321,113.742c-23.21,0-45.042,8.725-61.662,24.057c1.637-14.624,4.768-29.041,9.386-43.099
	c3.267-9.943,1.62-20.507-4.518-28.984c-6.139-8.477-15.661-13.339-26.128-13.339h-78.102c-44.208,0-86.742-16.184-119.769-45.569
	c-5.637-5.015-13.181-7.45-20.68-6.663c-7.373,0.766-14.11,4.598-18.483,10.514c-6.206,8.396-7.967,19.328-4.709,29.245
	c9.484,28.874,12.976,73.407,9.34,119.126c-3.791,47.667-14.637,89.251-29.755,114.09c-19.545,32.109-29.468,68.958-28.697,106.563
	c0.728,35.601,15.343,68.931,41.154,93.85c25.694,24.808,59.525,38.469,95.262,38.469h97.781c33.172,0,65.105-11.891,89.918-33.481
	c19.961-17.369,34.196-40.302,41.344-66.098c6.671-0.36,12.889-3.44,17.222-8.575c4.616-5.471,6.572-12.653,5.367-19.707
	c-6.937-40.615,8.518-81.296,40.337-106.2c23.244-16.92,36.572-43.524,36.572-73.015
	C488.502,154.646,447.598,113.742,397.321,113.742z M443.01,265.878c-0.071,0.052-0.142,0.104-0.212,0.159
	c-36.242,28.3-53.865,74.521-45.99,120.627c0.459,2.687-0.287,5.424-2.047,7.509c-0.658,0.781-1.417,1.429-2.249,1.941
	c0.375-2.42,0.696-4.857,0.95-7.312c0.427-4.12-2.567-7.806-6.688-8.232c-4.121-0.425-7.806,2.568-8.232,6.688
	c-6.583,63.59-57.387,109.743-120.8,109.743h-97.781c-65.625,0-120.094-52.767-121.42-117.625
	c-0.712-34.745,8.457-68.791,26.514-98.457c16.299-26.777,27.924-70.771,31.896-120.699c3.785-47.602,0.031-94.33-10.043-124.998
	c-1.768-5.384-0.85-11.087,2.521-15.646c1.901-2.572,4.732-4.174,7.971-4.511c3.323-0.341,6.663,0.729,9.159,2.951
	c35.775,31.832,81.852,49.362,129.739,49.362H314.4c5.6,0,10.694,2.602,13.979,7.137c3.283,4.534,4.164,10.186,2.417,15.505
	c-7.405,22.543-11.245,45.95-11.459,69.668c-0.005,0.157-0.011,0.313-0.006,0.47c-0.014,1.993-0.011,3.987,0.026,5.984
	c0.077,4.142,3.491,7.443,7.64,7.358c4.142-0.078,7.436-3.498,7.358-7.64c-0.023-1.226-0.028-2.45-0.031-3.674
	c14.262-20.98,37.652-33.443,62.998-33.443c42.006,0,76.181,34.175,76.181,76.182C473.502,229.599,462.388,251.817,443.01,265.878z"
	/>
<path d="M334.813,294.422c0-4.143-3.357-7.5-7.5-7.5H84.092c-2.617,0-5.046,1.364-6.406,3.601
	c-16.239,26.678-24.478,57.273-23.824,88.479c0.085,4.088,3.426,7.343,7.495,7.343c0.053,0,0.106-0.001,0.16-0.002
	c4.141-0.086,7.428-3.514,7.341-7.655c-0.563-26.948,6.175-53.398,19.518-76.765h238.938
	C331.456,301.922,334.813,298.564,334.813,294.422z"/>
<path d="M350.08,367.918h-0.008c-4.143,0.005-7.496,3.366-7.492,7.508c0.025,23.767-8.944,45.849-25.258,62.179
	c-16.457,16.475-39.32,25.923-62.729,25.923h-97.781c-4.143,0-7.5,3.357-7.5,7.5s3.357,7.5,7.5,7.5h97.781
	c27.359,0,54.092-11.052,73.341-30.321c19.146-19.168,29.675-45.021,29.646-72.796C357.576,371.27,354.219,367.918,350.08,367.918z"
	/>
<path d="M275.806,416.376c0.319-0.349,0.619-0.709,0.931-1.063c0.461-0.523,0.926-1.044,1.37-1.577
	c0.419-0.502,0.817-1.015,1.221-1.524c0.307-0.388,0.621-0.771,0.919-1.163c0.478-0.627,0.935-1.264,1.392-1.902
	c0.195-0.273,0.396-0.543,0.586-0.818c0.525-0.754,1.029-1.518,1.524-2.287c0.097-0.15,0.197-0.299,0.292-0.45
	c0.566-0.892,1.11-1.794,1.637-2.704c0.006-0.01,0.011-0.019,0.017-0.029c14.326-24.773,13.943-55.866-1.866-80.462
	c-0.032-0.05-0.06-0.101-0.092-0.15c-0.004-0.007-0.01-0.013-0.014-0.019c-1.439-2.226-2.992-4.402-4.684-6.511
	c-2.558-3.187-6.371-5.143-10.464-5.366c-4.112-0.228-8.153,1.318-11.068,4.233l-58.408,58.409
	c-0.002,0.002-0.004,0.004-0.007,0.006s-0.004,0.004-0.006,0.007l-30.124,30.124c-2.915,2.916-4.459,6.951-4.233,11.069
	c0.224,4.092,2.179,7.905,5.365,10.463c2.095,1.682,4.26,3.222,6.47,4.653c0.021,0.014,0.039,0.03,0.061,0.044
	c0.069,0.044,0.14,0.084,0.209,0.128c12.745,8.176,27.224,12.23,41.673,12.23c14.333,0,28.619-3.998,41.13-11.853
	c0.235-0.147,0.47-0.292,0.704-0.441c0.655-0.421,1.303-0.855,1.947-1.298c0.393-0.269,0.784-0.542,1.173-0.819
	c0.541-0.386,1.079-0.778,1.613-1.179c0.492-0.37,0.978-0.752,1.464-1.135c0.447-0.354,0.895-0.705,1.335-1.07
	c0.595-0.492,1.18-1.003,1.763-1.516c0.333-0.292,0.67-0.576,0.999-0.875c0.916-0.833,1.819-1.686,2.704-2.571
	C274.186,418.114,275.006,417.251,275.806,416.376z M267.706,325.599c0.281,0.358,0.562,0.715,0.834,1.077
	c0.189,0.252,0.382,0.502,0.567,0.756c0.516,0.709,1.016,1.426,1.498,2.152c0.052,0.078,0.106,0.154,0.157,0.232
	c13.096,19.902,13.638,45.699,1.623,66.088c-0.01,0.016-0.019,0.032-0.028,0.049c-0.477,0.807-0.978,1.604-1.494,2.393
	c-0.075,0.115-0.148,0.23-0.224,0.344c-0.459,0.692-0.939,1.375-1.429,2.052c-0.13,0.179-0.255,0.36-0.387,0.538
	c-0.455,0.615-0.929,1.22-1.409,1.821c-0.172,0.215-0.337,0.434-0.512,0.647c-0.479,0.585-0.98,1.158-1.484,1.729
	c-0.184,0.208-0.358,0.421-0.545,0.627c-0.679,0.75-1.379,1.487-2.101,2.21c-0.013,0.013-0.025,0.027-0.038,0.04
	c-0.001,0-0.001,0-0.001,0c-0.088,0.088-0.18,0.168-0.268,0.255c-0.647,0.64-1.303,1.268-1.971,1.873
	c-0.237,0.215-0.481,0.416-0.72,0.626c-0.541,0.476-1.082,0.95-1.635,1.404c-0.232,0.191-0.47,0.371-0.705,0.558
	c-0.583,0.464-1.168,0.924-1.763,1.365c-0.192,0.142-0.387,0.277-0.58,0.417c-0.664,0.479-1.332,0.95-2.01,1.4
	c-0.125,0.083-0.252,0.164-0.378,0.246c-0.778,0.509-1.563,1.003-2.359,1.473c-0.025,0.015-0.051,0.03-0.076,0.045
	c-20.39,12.008-46.184,11.462-66.082-1.637c-0.064-0.042-0.127-0.087-0.191-0.13c-0.738-0.49-1.468-0.999-2.189-1.524
	c-0.247-0.18-0.491-0.368-0.736-0.552c-0.366-0.275-0.728-0.559-1.09-0.843l25.16-25.16c3.54,1.974,7.423,3.106,11.361,3.396
	c-1.113,0.375-2.103,0.989-2.902,1.789c-1.606,1.606-2.466,3.919-2.129,6.342c0.386,2.777,0.416,5.597,0.086,8.383
	c-0.487,4.114,2.454,7.843,6.567,8.329c4.114,0.487,7.843-2.454,8.329-6.567c0.48-4.058,0.438-8.167-0.125-12.213
	c-0.411-2.952-2.491-5.254-5.152-6.105c5.587-0.533,11.038-2.771,15.51-6.704c-1.482,2.555-1.371,5.86,0.544,8.345
	c2.426,3.148,5.324,6.086,8.633,8.642c3.271,2.526,7.981,1.935,10.52-1.352c2.531-3.279,1.926-7.988-1.352-10.52l-5.92-5.927
	c-2.343-3.04-6.557-3.782-9.774-1.863c3.214-3.712,5.274-8.082,6.17-12.641c1.173,1.795,3.102,3.077,5.397,3.349
	c4.058,0.48,8.167,0.438,12.213-0.125c4.102-0.571,6.965-4.36,6.394-8.462c-0.234-1.68-1.007-3.152-2.121-4.265
	c-1.606-1.606-3.919-2.466-6.342-2.129c-2.777,0.386-5.597,0.416-8.383,0.086c-2.731-0.323-5.287,0.87-6.843,2.908
	c-0.42-3.505-1.511-6.942-3.275-10.104L267.706,325.599z M230.896,362.409c0.528,3.757-0.636,7.707-3.519,10.59
	c-2.883,2.884-6.833,4.047-10.59,3.52L230.896,362.409z"/>
<g>
</g>
<g>
</g>
<g>
</g>
<g>
</g>
<g>
</g>
<g>
</g>
<g>
</g>
<g>
</g>
<g>
</g>
<g>
</g>
<g>
</g>
<g>
</g>
<g>
</g>
<g>
</g>
<g>
</g>
</svg>
