<?xml version="1.0" standalone="no"?>
<!DOCTYPE svg PUBLIC "-//W3C//DTD SVG 20010904//EN"
 "http://www.w3.org/TR/2001/REC-SVG-20010904/DTD/svg10.dtd">
<svg version="1.0" xmlns="http://www.w3.org/2000/svg"
 width="700.000000pt" height="700.000000pt" viewBox="0 0 700.000000 700.000000"
 preserveAspectRatio="xMidYMid meet">
<metadata>
Created by potrace 1.11, written by Peter Selinger 2001-2013
</metadata>
<g transform="translate(0.000000,700.000000) scale(0.100000,-0.100000)"
fill="#000000" stroke="none">
<path d="M1264 6991 c-128 -32 -240 -146 -276 -281 -16 -56 -17 -171 -3 -220
36 -129 76 -289 81 -320 2 -19 7 -44 9 -56 3 -12 7 -39 10 -60 3 -21 7 -48 10
-59 2 -11 7 -49 10 -85 4 -36 8 -76 11 -90 27 -168 26 -788 -2 -1075 -6 -70
-44 -368 -49 -396 -3 -13 -12 -62 -21 -109 -19 -103 -19 -103 -34 -165 -6 -27
-13 -58 -15 -68 -2 -10 -7 -27 -10 -37 -3 -10 -8 -27 -10 -38 -2 -11 -20 -75
-40 -142 -63 -213 -136 -380 -250 -575 -191 -324 -322 -735 -352 -1107 -9
-113 -9 -406 0 -468 4 -25 9 -58 11 -75 46 -303 178 -605 371 -850 287 -363
699 -610 1145 -686 130 -22 227 -24 1025 -24 l840 0 125 24 c291 55 561 171
787 338 283 209 492 486 626 828 19 50 38 105 42 122 7 33 18 46 45 50 51 7
103 29 146 61 120 91 155 215 119 419 -10 54 -11 231 -3 311 13 123 48 282 78
357 4 11 14 36 21 55 77 214 266 469 459 623 233 185 361 358 440 595 45 136
62 235 65 382 7 361 -124 678 -383 928 -452 437 -1170 462 -1656 59 l-48 -41
6 45 c3 24 8 55 10 69 3 14 7 42 10 62 3 21 11 59 17 85 6 27 12 57 15 68 3
16 14 64 19 85 9 37 30 107 46 156 57 175 20 344 -101 465 -61 61 -131 102
-207 120 -33 8 -252 12 -698 14 -593 3 -694 5 -781 19 -16 2 -49 7 -74 11
-287 41 -625 163 -885 320 -74 45 -195 126 -222 150 -6 5 -26 21 -44 35 -18
14 -53 42 -78 63 -63 55 -111 83 -167 100 -55 16 -144 19 -190 8z m4316 -2228
c190 -48 361 -215 410 -403 47 -175 21 -342 -74 -483 -37 -56 -80 -98 -191
-192 -215 -180 -421 -436 -536 -667 -13 -26 -27 -46 -30 -45 -4 1 -34 55 -67
119 -34 64 -89 165 -122 224 -114 196 -197 377 -250 546 l-17 56 52 55 c61 65
91 142 94 243 3 85 39 208 82 279 84 140 242 250 399 278 51 10 196 4 250 -10z"/>
</g>
</svg>
